<svg height="512pt" viewBox="0 -61 512.001 512" width="512pt" xmlns="http://www.w3.org/2000/svg"><g fill="#458d14"><path d="m105 390.003906h-40c-8.285156 0-15-6.714844-15-15 0-8.28125 6.714844-15 15-15h30.730469l35.851562-71.707031c3.703125-7.410156 12.714844-10.414063 20.125-6.707031 7.410157 3.703125 10.414063 12.714844 6.707031 20.125l-40 80c-2.539062 5.078125-7.730468 8.289062-13.414062 8.289062zm0 0"/><path d="m285 390.003906h-40c-5.683594 0-10.875-3.210937-13.414062-8.292968l-40-80c-3.707032-7.40625-.703126-16.417969 6.707031-20.125 7.410156-3.703126 16.417969-.699219 20.121093 6.710937l35.855469 71.707031h30.730469c8.285156 0 15 6.714844 15 15s-6.714844 15-15 15zm0 0"/><path d="m75 150.003906c-8.285156 0-15-6.714844-15-15v-60c0-24.8125-20.1875-45-45-45-8.285156 0-15-6.714844-15-15 0-8.28125 6.714844-14.99999975 15-14.99999975 41.355469 0 75 33.64453175 75 74.99999975v60c0 8.285156-6.714844 15-15 15zm0 0"/><path d="m130 150.003906c-8.285156 0-15-6.714844-15-15v-60c0-41.355468 33.644531-74.99999975 75-74.99999975 8.285156 0 15 6.71874975 15 14.99999975 0 8.285156-6.714844 15-15 15-24.8125 0-45 20.1875-45 45v60c0 8.285156-6.714844 15-15 15zm0 0"/></g><path d="m275.738281 180.003906h175.304688c8.914062 70.070313-45.695313 130-114.042969 130h-222c-8.285156 0-15-6.714844-15-15v-119.933594c0-13.707031-11.007812-25.324218-24.714844-25.070312-8.421875.160156-15.296875-6.628906-15.285156-15.015625.011719-8.347656 7.074219-14.980469 15.421875-14.980469h121.578125c8.285156 0 15 6.71875 15 15zm0 0" fill="#57b019"/><path d="m451.042969 180.003906h-175.304688l-19.738281-13.9375v143.9375h81c68.347656 0 122.957031-59.929687 114.042969-130zm0 0" fill="#458d14"/><path d="m437 210.003906h-165.363281c-5.363281 0-10.316407-2.859375-12.996094-7.503906-2.675781-4.644531-2.671875-10.367188.011719-15.007812 2.191406-3.785157 3.347656-8.101563 3.347656-12.488282v-40c0-8.28125 6.71875-15 15-15h220c8.285156 0 15 6.71875 15 15 0 41.355469-33.644531 75-75 75zm0 0" fill="#68d31e"/><path d="m130 310.003906h-55c-30.375 0-55-24.625-55-55v-79.164062c0-30.183594 23.96875-55.367188 54.144531-55.828125 30.71875-.46875 55.855469 24.382812 55.855469 54.992187zm0 0" fill="#68d31e"/><path d="m75 230.003906c-30.328125 0-55-24.671875-55-55 0-30.324218 24.671875-55 55-55s55 24.675782 55 55c0 30.328125-24.671875 55-55 55zm0 0" fill="#ffe31f"/><path d="m175 250.003906c-8.285156 0-15 6.71875-15 15v45h30v-45c0-8.28125-6.714844-15-15-15zm0 0" fill="#458d14"/><path d="m295 250.003906c-8.285156 0-15 6.71875-15 15v45h30v-45c0-8.28125-6.714844-15-15-15zm0 0" fill="#377310"/><path d="m235 250.003906c-8.285156 0-15 6.71875-15 15v45h30v-45c0-8.28125-6.714844-15-15-15zm0 0" fill="#458d14"/><path d="m237 230.003906c-30.328125 0-55-24.671875-55-55v-40c0-2.960937.878906-5.855468 2.519531-8.320312l80-120c3.667969-5.5 10.503907-7.949219 16.828125-6.035156 6.324219 1.914062 10.652344 7.746093 10.652344 14.355468v160c0 30.328125-24.671875 55-55 55zm0 0" fill="#68d31e"/><path d="m281.347656.648438c-6.324218-1.914063-13.160156.535156-16.828125 6.035156l-8.519531 12.78125v207.152344c20.992188-7.75 36-27.960938 36-51.613282v-160c0-6.609375-4.328125-12.441406-10.652344-14.355468zm0 0" fill="#57b019"/><path d="m497 390.003906h-40c-5.683594 0-10.875-3.210937-13.414062-8.292968l-180-360c-3.707032-7.40625-.703126-16.417969 6.707031-20.125 7.410156-3.703126 16.417969-.699219 20.121093 6.710937l175.855469 351.707031h30.730469c8.285156 0 15 6.714844 15 15s-6.714844 15-15 15zm0 0" fill="#57b019"/><path d="m285 360.003906h-29v30h29c8.285156 0 15-6.714844 15-15 0-8.28125-6.714844-15-15-15zm0 0" fill="#377310"/></svg>
